<svg viewBox="0 0 354 24" fill="none" xmlns="http://www.w3.org/2000/svg">
<path d="M5 5C7.41365 6.52881 13.1069 5.63085 15.4762 5.63085C54.3931 5.63085 93.31 5.63085 132.227 5.63085C199.474 5.63085 266.721 5.63085 333.968 5.63085C338.406 5.63085 342.845 5.63085 347.284 5.63085C355.782 5.63085 330.393 7.53584 321.905 7.90894C253.843 10.9006 185.95 15.9206 117.804 17.3367C100.247 17.7015 82.6866 17.6171 65.1275 17.6171C62.3562 17.6171 57.1516 18.5656 54.43 17.4769C53.6393 17.1606 55.8782 16.5262 56.717 16.3554C70.0181 13.6474 84.4701 14.1587 97.9579 13.832C129.603 13.0654 161.256 13.2011 192.908 13.2011" stroke="#62D84E" stroke-width="10" stroke-linecap="round"/>
</svg>
