<svg viewBox="0 0 10 21" fill="none" xmlns="http://www.w3.org/2000/svg">
<path d="M9.35557 10.5038H6.54567V20.7824H2.2882V10.5038H0.263672V6.89121H2.2882V4.55567C2.24254 3.98085 2.32232 3.40298 2.52203 2.86193C2.72175 2.32089 3.03664 1.82954 3.44499 1.42181C3.85334 1.01407 4.34542 0.699649 4.88728 0.500234C5.42914 0.300819 6.00788 0.22116 6.58357 0.266753L9.73736 0.279996V3.78662H7.4523C7.32471 3.78008 7.19724 3.80179 7.07903 3.85019C6.96082 3.89858 6.85478 3.97247 6.76851 4.06657C6.68224 4.16067 6.61786 4.27264 6.57999 4.39448C6.54213 4.51632 6.5317 4.64501 6.54946 4.77135V6.89783H9.72599L9.35557 10.5038Z" fill="black"/>
</svg>
