<svg  viewBox="0 0 20 18" fill="none" xmlns="http://www.w3.org/2000/svg">
<path d="M0.0220032 17.9981H4.015V5.14492H0.0220032V17.9981ZM15.578 4.70258C14.6406 4.67219 13.7089 4.85474 12.8578 5.23553C12.0068 5.61632 11.2601 6.18471 10.678 6.895V5.10243H6.668V17.999H10.675V11.0248C10.7146 10.2426 11.0632 9.5047 11.6489 8.96305C12.2347 8.42139 13.0131 8.11715 13.824 8.1129C15.575 8.1129 16.007 9.551 16.007 10.9881V17.9971H20V10.7013C20.001 5.6346 17.517 4.70258 15.578 4.70258ZM2 3.86328C2.39556 3.86328 2.78225 3.75 3.11115 3.53775C3.44004 3.3255 3.69639 3.02381 3.84776 2.67085C3.99914 2.31789 4.03874 1.9295 3.96157 1.5548C3.8844 1.1801 3.69392 0.83591 3.41422 0.565765C3.13451 0.29562 2.77814 0.111651 2.39018 0.0371178C2.00222 -0.037415 1.60009 0.000834224 1.23463 0.147036C0.869182 0.293237 0.556822 0.54082 0.337059 0.858477C0.117296 1.17613 0 1.5496 0 1.93164C0.00079487 2.44344 0.211859 2.93402 0.586845 3.29564C0.961832 3.65727 1.47009 3.86039 2 3.86039V3.86328Z" fill="black"/>
</svg>
