<svg viewBox="0 0 18 21" fill="none" xmlns="http://www.w3.org/2000/svg">
<path d="M9.45501 0.157991C10.586 0.140991 11.708 0.149991 12.83 0.140991C12.8648 1.48792 13.4041 2.77269 14.341 3.74099C15.3539 4.65076 16.6426 5.19473 18.001 5.28599V8.76499C16.7481 8.73479 15.5144 8.45001 14.375 7.92799C13.8888 7.69703 13.4208 7.4296 12.975 7.12799C12.966 9.64899 12.984 12.17 12.958 14.682C12.892 15.9013 12.4887 17.0784 11.793 18.082C11.2196 18.9113 10.4592 19.5941 9.57334 20.0755C8.68744 20.5568 7.70079 20.8231 6.69301 20.853C5.45719 20.9089 4.23227 20.5997 3.17101 19.964C2.29764 19.4447 1.55795 18.7282 1.01114 17.8717C0.464332 17.0153 0.125586 16.0428 0.0220118 15.032C0.0050118 14.6 -0.00398826 14.169 0.0130117 13.746C0.101388 12.8611 0.370398 12.0038 0.803399 11.227C1.2364 10.4503 1.82418 9.77066 2.53038 9.23018C3.23657 8.68971 4.04616 8.2999 4.90905 8.08486C5.77194 7.86982 6.66978 7.83413 7.54701 7.97999C7.56401 9.25799 7.51201 10.535 7.51201 11.813C7.14378 11.6837 6.75364 11.6285 6.36399 11.6504C5.97435 11.6724 5.59289 11.7712 5.24154 11.9411C4.89018 12.1109 4.57586 12.3486 4.31663 12.6403C4.05741 12.932 3.85839 13.2721 3.73101 13.641C3.59573 14.0911 3.55454 14.5643 3.61001 15.031C3.72201 15.7429 4.09177 16.3889 4.64896 16.8459C5.20616 17.303 5.91192 17.5394 6.63201 17.51C7.11478 17.4957 7.58634 17.3611 8.00389 17.1184C8.42143 16.8756 8.77174 16.5325 9.02301 16.12C9.21545 15.8493 9.33714 15.5347 9.37701 15.205C9.46301 13.66 9.42901 12.123 9.43701 10.578C9.44601 7.09899 9.42801 3.62899 9.45401 0.157991H9.45501Z" fill="black"/>
</svg>
