<svg viewBox="0 0 24 18" fill="none" xmlns="http://www.w3.org/2000/svg">
<path d="M23.049 2.28423C22.2211 2.63387 21.343 2.86304 20.4438 2.9641C21.3893 2.42296 22.0963 1.57262 22.4333 0.571396C21.5433 1.07689 20.5691 1.43338 19.553 1.62545C18.8692 0.932166 17.9648 0.473144 16.9798 0.319414C15.9949 0.165685 14.9842 0.325821 14.1043 0.775038C13.2244 1.22426 12.5243 1.93751 12.1122 2.80443C11.7002 3.67136 11.5993 4.64362 11.825 5.57077C10.0238 5.48246 8.2621 5.0342 6.65415 4.25504C5.0462 3.47588 3.62786 2.3832 2.49106 1.04783C1.91135 2.00008 1.73382 3.12718 1.99458 4.19983C2.25534 5.27247 2.93481 6.2101 3.89475 6.82194C3.17463 6.80062 2.47039 6.61482 1.84117 6.28015C1.84117 6.29807 1.84117 6.31704 1.84117 6.33496C1.84134 7.333 2.20321 8.30031 2.86548 9.07308C3.52775 9.84585 4.44973 10.3766 5.47527 10.5754C4.80743 10.7485 4.10699 10.7741 3.42722 10.6503C3.71692 11.5096 4.281 12.2612 5.04059 12.7998C5.80019 13.3384 6.71731 13.6372 7.66369 13.6543C5.76099 15.0729 3.3476 15.7169 0.949219 15.4462C2.89848 16.6372 5.14795 17.3059 7.46158 17.3821C9.77522 17.4583 12.0677 16.9393 14.0985 15.8794C16.1293 14.8195 17.8235 13.2579 19.0034 11.3584C20.1833 9.45889 20.8053 7.29156 20.8042 5.0838C20.8042 4.89618 20.8042 4.70961 20.7909 4.5241C21.6774 3.91159 22.442 3.15306 23.049 2.28423Z" fill="black"/>
</svg>
